<?xml version="1.0" encoding="UTF-8"?>
<svg xmlns="http://www.w3.org/2000/svg" xmlns:xlink="http://www.w3.org/1999/xlink" width="30px" height="30px" viewBox="0 0 30 30" version="1.1">
<g id="surface1">
<path style=" stroke:none;fill-rule:nonzero;fill:#00008B;fill-opacity:1;" d="M 18.75 15 C 18.75 17.070312 17.070312 18.75 15 18.75 C 12.929688 18.75 11.25 17.070312 11.25 15 C 11.25 12.929688 12.929688 11.25 15 11.25 C 17.070312 11.253906 18.746094 12.929688 18.75 15 Z M 26.71875 9.84375 L 26.71875 20.15625 C 26.714844 23.777344 23.777344 26.714844 20.15625 26.71875 L 9.84375 26.71875 C 6.222656 26.714844 3.285156 23.777344 3.28125 20.15625 L 3.28125 9.84375 C 3.285156 6.222656 6.222656 3.285156 9.84375 3.28125 L 20.15625 3.28125 C 23.777344 3.285156 26.714844 6.222656 26.71875 9.84375 Z M 20.625 15 C 20.625 11.894531 18.105469 9.375 15 9.375 C 11.894531 9.375 9.375 11.894531 9.375 15 C 9.375 18.105469 11.894531 20.625 15 20.625 C 18.105469 20.621094 20.621094 18.105469 20.625 15 Z M 22.5 8.90625 C 22.5 8.128906 21.871094 7.5 21.09375 7.5 C 20.316406 7.5 19.6875 8.128906 19.6875 8.90625 C 19.6875 9.683594 20.316406 10.3125 21.09375 10.3125 C 21.871094 10.3125 22.5 9.683594 22.5 8.90625 Z M 22.5 8.90625 "/>
</g>
</svg>
